<svg xmlns="http://www.w3.org/2000/svg" width="159" height="104" viewBox="0 0 159 104">
    <defs>
        <filter id="a" width="112.2%" height="109.8%" x="-6.1%" y="-4.9%" filterUnits="objectBoundingBox">
            <feOffset dy="2" in="SourceAlpha" result="shadowOffsetOuter1"/>
            <feGaussianBlur in="shadowOffsetOuter1" result="shadowBlurOuter1" stdDeviation="2"/>
            <feColorMatrix in="shadowBlurOuter1" result="shadowMatrixOuter1" values="0 0 0 0 0 0 0 0 0 0 0 0 0 0 0 0 0 0 0.5 0"/>
            <feMerge>
                <feMergeNode in="shadowMatrixOuter1"/>
                <feMergeNode in="SourceGraphic"/>
            </feMerge>
        </filter>
    </defs>
    <g fill="#EE4D64" fill-rule="evenodd" filter="url(#a)" transform="translate(-101 -48)">
        <text font-family="Helvetica" font-size="29.861" transform="translate(104 50)">
            <tspan x="0" y="93.698">GYMPOINT</tspan>
        </text>
        <g fill-rule="nonzero">
            <path d="M223.293 61.825a7.02 7.02 0 0 0-3.056.696c-.23-3.688-3.303-6.618-7.048-6.618a7.02 7.02 0 0 0-3.06.698c-.264-3.657-3.32-6.552-7.043-6.552a7.071 7.071 0 0 0-7.063 7.063V68.82a2.011 2.011 0 0 0 4.022 0V57.112a3.044 3.044 0 0 1 3.04-3.04 3.044 3.044 0 0 1 3.041 3.04v38.07a3.044 3.044 0 0 1-3.04 3.04 3.044 3.044 0 0 1-3.04-3.04V83.474c0-1.11-.901-2.01-2.012-2.01h-27.128a2.011 2.011 0 0 0 0 4.022h25.117v9.696a7.071 7.071 0 0 0 7.063 7.064c3.722 0 6.78-2.896 7.042-6.553a7.02 7.02 0 0 0 3.061.699c3.745 0 6.818-2.93 7.048-6.619a7.02 7.02 0 0 0 3.056.696 7.071 7.071 0 0 0 7.063-7.063V68.888a7.071 7.071 0 0 0-7.063-7.063zm-7.063 27.503a3.044 3.044 0 0 1-3.04 3.041 3.044 3.044 0 0 1-3.041-3.04V62.965a3.044 3.044 0 0 1 3.04-3.04 3.044 3.044 0 0 1 3.041 3.04v26.362zm10.104-5.922a3.044 3.044 0 0 1-3.04 3.04 3.044 3.044 0 0 1-3.041-3.04V68.888a3.044 3.044 0 0 1 3.04-3.04 3.044 3.044 0 0 1 3.04 3.04v14.518z"/>
            <path d="M163.031 81.463c-1.11 0-2.01.9-2.01 2.011v11.708a3.044 3.044 0 0 1-3.042 3.04 3.044 3.044 0 0 1-3.04-3.04v-38.07a3.044 3.044 0 0 1 3.04-3.04 3.044 3.044 0 0 1 3.041 3.04V68.82c0 1.11.9 2.011 2.011 2.011h27.128a2.011 2.011 0 0 0 0-4.022h-25.116v-9.697a7.071 7.071 0 0 0-7.064-7.063c-3.722 0-6.78 2.895-7.042 6.552a7.02 7.02 0 0 0-3.061-.698c-3.745 0-6.818 2.93-7.048 6.618a7.02 7.02 0 0 0-3.056-.696 7.071 7.071 0 0 0-7.063 7.063v14.518a7.071 7.071 0 0 0 7.063 7.063 7.02 7.02 0 0 0 3.056-.696c.23 3.688 3.303 6.619 7.048 6.619 1.096 0 2.134-.251 3.06-.699.264 3.657 3.32 6.552 7.043 6.552a7.071 7.071 0 0 0 7.064-7.063V83.474c0-1.11-.9-2.01-2.012-2.01zm-25.259 4.984a3.044 3.044 0 0 1-3.04-3.04V68.887a3.044 3.044 0 0 1 3.04-3.04 3.044 3.044 0 0 1 3.04 3.04v14.518a3.044 3.044 0 0 1-3.04 3.04zm10.104 5.922a3.044 3.044 0 0 1-3.04-3.04V62.965a3.044 3.044 0 0 1 3.04-3.04 3.044 3.044 0 0 1 3.04 3.04v26.362a3.044 3.044 0 0 1-3.04 3.041z"/>
            <path d="M161.014 76.265v.674a2.011 2.011 0 0 0 4.023 0v-.674a2.011 2.011 0 0 0-4.023 0zM200.045 76.041v-.674a2.011 2.011 0 0 0-4.022 0v.674a2.011 2.011 0 1 0 4.022 0z"/>
        </g>
    </g>
</svg>
